<?xml version="1.0" encoding="UTF-8" standalone="no"?>
<!-- Generator: Adobe Illustrator 15.0.2, SVG Export Plug-In . SVG Version: 6.00 Build 0)  -->

<svg
   width="773.85168"
   height="588.98145"
   viewBox="550 450 773.8517 588.98146"
   preserveAspectRatio="xMidYMid"
   id="svg2"
   sodipodi:version="0.32"
   inkscape:version="1.2 (dc2aeda, 2022-05-15)"
   inkscape:export-ydpi="90"
   inkscape:export-xdpi="90"
   sodipodi:docname="coteauxdulanguedoc.svg"
   inkscape:export-filename="/home/maxime/Desktop/vignobles_midi.png"
   inkscape:output_extension="org.inkscape.output.svg.inkscape"
   x="0px"
   y="0px"
   xml:space="preserve"
   version="1.1"
   xmlns:inkscape="http://www.inkscape.org/namespaces/inkscape"
   xmlns:sodipodi="http://sodipodi.sourceforge.net/DTD/sodipodi-0.dtd"
   xmlns="http://www.w3.org/2000/svg"
   xmlns:svg="http://www.w3.org/2000/svg"><defs
   id="defs844" />

<sodipodi:namedview
   id="base"
   showguides="true"
   showgrid="false"
   inkscape:cy="335.17291"
   inkscape:cx="445.51791"
   inkscape:zoom="0.36249946"
   borderopacity="1.0"
   bordercolor="#666666"
   pagecolor="#ffffff"
   inkscape:guide-bbox="true"
   inkscape:window-y="38"
   inkscape:window-x="222"
   inkscape:window-height="833"
   inkscape:window-width="1248"
   inkscape:current-layer="layer15"
   inkscape:document-units="px"
   inkscape:pageshadow="2"
   inkscape:pageopacity="0.0"
   inkscape:showpageshadow="2"
   inkscape:pagecheckerboard="0"
   inkscape:deskcolor="#d1d1d1"
   inkscape:window-maximized="0">
	</sodipodi:namedview>
<g
   id="layer15"
   inkscape:label="Fond blanc"
   inkscape:groupmode="layer"
   transform="translate(23.10266,-54.121724)">
	<polygon
   id="rect5129"
   fill="#ffffff"
   points="0,1300 3.035,2.052 1300.749,2.052 1300.749,1300 "
   transform="matrix(0.59492774,0,0,0.45377891,526.89734,503.19057)" />
</g>
<g
   id="layer17"
   inkscape:label="Couche zoom surfacique"
   inkscape:groupmode="layer"
   transform="translate(17.58541,-51.3631)">
	<path
   id="path3020"
   fill="#ffe119"
   class="clickable-region"
   data-label="Saint-Chinian"
   stroke="#316100"
   stroke-width="0.7475"
   d="m 710.144,846.652 c 1.617,2.211 3.465,4.287 4.939,6.58 1.429,3.301 2.881,6.594 3.737,10.1 0.369,1.162 0.461,2.51 1.705,3.088 6.04,4.906 12.08,9.813 18.12,14.723 0.397,4.311 0.798,8.622 1.196,12.933 2.449,0.228 5.552,-0.211 6.977,2.32 1.979,0.846 2.278,4.195 4.805,3.323 5.025,-0.342 10.075,-0.438 15.044,-1.332 1.238,-1.208 3.072,-1.979 3.458,-3.813 1.209,-2.603 1.735,-5.737 4.322,-7.397 2.149,-2.181 4.533,-4.217 7.309,-5.556 1.357,0.64 2.715,1.277 4.072,1.916 2.235,-1.995 4.471,-3.99 6.706,-5.986 -2.235,-1.519 -4.471,-3.034 -6.706,-4.552 0.798,-3.673 1.597,-7.345 2.396,-11.018 -3.434,-3.113 -6.865,-6.227 -10.3,-9.341 3.673,-2.874 7.346,-5.748 11.019,-8.622 2.076,1.597 4.15,3.193 6.228,4.79 2.476,-1.677 4.949,-3.354 7.425,-5.029 0.895,-3.067 1.909,-6.126 3.593,-8.862 2.649,-2.229 5.208,0.979 7.903,0.958 1.321,0.175 2.521,-0.133 3.6,-0.917 2.557,-1.27 5.495,1.459 7.823,2.427 1.095,1.909 1.013,4.276 3.185,2.006 1.42,-0.464 1.15,-2.095 1.563,-3.254 0.53,-2.177 1.353,-4.306 1.073,-6.583 0.059,-4.303 -1.08,-8.536 -0.958,-12.838 -1.939,-2.914 -3.808,-5.92 -4.883,-9.27 -0.593,-1.044 -0.964,-2.397 -2.426,-2.222 -2.4,-0.641 -4.913,-0.442 -7.326,-0.91 -1.381,-0.494 -3.209,-0.295 -3.921,-1.824 -5.471,-6.915 -10.941,-13.829 -16.412,-20.743 -4.046,0.971 -8.255,1.039 -12.215,2.396 -0.479,-1.597 -0.958,-3.193 -1.438,-4.79 -1.995,1.277 -3.991,2.555 -5.986,3.832 -4.313,-2.235 -8.622,-4.471 -12.935,-6.706 -3.193,0.479 -6.387,0.958 -9.58,1.438 -2.594,3.571 -5.062,7.278 -7.984,10.581 -2.915,2.94 -6.248,5.406 -9.738,7.62 -1.169,0.729 -1.356,1.834 -1.094,3.111 0.125,2.315 0.25,4.632 0.375,6.948 -4.392,0 -8.781,0 -13.174,0 -3.192,2.714 -6.387,5.429 -9.579,8.143 0.165,6.541 0.411,13.101 0.134,19.634 -0.331,4.296 -1.163,8.488 -2.052,12.698 z" />
    <path
   id="path673"
   fill="#4363d8"
   class="clickable-region"
   data-label="Cabrières"
   stroke="#316100"
   stroke-width="0.7475"
   d="m 893.127,752.048 c 1.146,1.282 2.09,2.827 3.363,3.945 3.432,1.671 6.991,3.055 10.776,3.643 1.785,0.542 3.663,0.236 5.499,0.315 0.93,9.396 -2.607,19.202 -9.58,25.627 -3.602,-2.789 -7.372,-5.434 -10.867,-8.313 -1.106,-2.091 -2.065,-4.283 -3.822,-5.93 -1.933,-2.511 -4.752,-4.094 -7.584,-5.397 4.071,-4.631 8.144,-9.261 12.215,-13.89 z" />
    <path
   id="path675"
   fill="#f58231"
   class="clickable-region"
   data-label="Montpeyroux"
   stroke="#316100"
   stroke-width="0.7475"
   d="m 954.069,671.956 c 1.48,-0.605 2.962,-1.214 4.442,-1.819 4.974,1.649 7.084,7.182 8.315,11.815 2.088,8.832 1.656,18.021 0.785,26.983 -3.771,-0.639 -7.544,-1.277 -11.316,-1.916 1.013,-11.193 -0.535,-22.432 -1.995,-33.522 -0.073,-0.514 -0.15,-1.028 -0.231,-1.541 z" />
    <path
   id="path677"
   fill="#911eb4"
   class="clickable-region"
   data-label="Saint-Saturnin"
   stroke="#316100"
   stroke-width="0.7475"
   d="m 956.356,707.26 c -0.159,2.953 -0.319,5.907 -0.479,8.86 -7.585,-0.159 -15.169,-0.318 -22.753,-0.479 -0.16,-4.471 -0.319,-8.941 -0.479,-13.412 3.112,-1.597 6.228,-3.193 9.341,-4.79 0.238,-7.345 0.479,-14.688 0.719,-22.034 3.748,-1.25 7.496,-2.499 11.245,-3.749 2.015,11.733 3.072,23.698 2.406,35.604 z" />
    <path
   id="path679"
   fill="#46f0f0"
   class="clickable-region"
   data-label="Faugères"
   stroke="#316100"
   stroke-width="0.7475"
   d="m 830.362,816.672 c -1.939,-2.914 -3.809,-5.919 -4.883,-9.27 -0.594,-1.044 -0.964,-2.397 -2.427,-2.222 -2.399,-0.64 -4.913,-0.442 -7.326,-0.91 -1.381,-0.494 -3.209,-0.295 -3.921,-1.824 -5.471,-6.914 -10.94,-13.829 -16.412,-20.743 3.66,-0.139 7.32,-0.276 10.98,-0.416 6.21,-4.571 12.42,-9.145 18.63,-13.718 -1.073,-1.75 -2.146,-3.5 -3.219,-5.25 8.602,-0.445 16.451,-4.735 23.541,-9.313 0.17,2.202 0.339,4.402 0.508,6.604 2.314,-1.186 4.629,-2.371 6.944,-3.557 3.442,2.653 6.887,5.307 10.33,7.96 -2.201,3.104 -4.403,6.209 -6.604,9.313 0.913,1.046 2.189,1.932 2.887,3.07 -0.046,1.422 0.317,3.027 0.015,4.334 -1.927,1.597 -3.854,3.192 -5.779,4.789 -3.049,-0.282 -6.097,-0.563 -9.146,-0.847 -1.091,1.112 -2.685,1.932 -2.625,3.726 -1.11,2.927 0.596,6.294 -0.729,9.111 -1.26,1.112 -2.419,2.271 -2.254,4.112 -0.965,1.158 0.57,4.544 -0.714,4.61 -2.805,-0.582 -5.608,-1.164 -8.413,-1.746 0.207,4.066 0.412,8.125 0.617,12.187 z" />
    <path
   id="path681"
   fill="#f032e6"
   class="clickable-region"
   data-label="Clairette du Languedoc"
   stroke="#316100"
   stroke-width="0.7475"
   d="m 912.788,759.935 c 0.929,9.396 -2.607,19.203 -9.58,25.627 9.333,5.435 18.667,10.868 28,16.302 4.632,-1.771 9.34,-3.409 13.923,-5.268 2.393,-1.967 4.999,-3.729 7.255,-5.823 2.174,-2.83 3.988,-6.034 4.336,-9.655 0.351,-2.192 1.96,-3.958 2.163,-6.212 0.443,-1.199 0.008,-2.465 -0.013,-3.697 -3.369,-1.34 -7.012,-3.145 -8.054,-6.946 -0.518,-3.077 -2.617,-6.56 -6.23,-5.905 -3.642,-0.271 -7.269,-0.117 -10.864,0.518 -3.541,-0.102 -5.542,-4.192 -9.229,-3.932 -3.58,0.277 -6.646,2.416 -9.952,3.654 -0.671,0.297 -1.166,0.908 -1.755,1.337 z" />
    <path
   id="path683"
   fill="#f032e6"
   class="clickable-region"
   data-label="Clairette du Languedoc"
   stroke="#316100"
   stroke-width="0.7475"
   d="m 955.896,716.134 c 0.114,-3.031 0.428,-6.081 0.42,-9.102 3.771,0.64 7.545,1.277 11.315,1.916 0.817,1.368 3.691,1.864 4.704,3.494 0.724,0.949 1.677,1.813 1.443,3.119 0.412,1.271 -0.276,2.159 -1.18,2.976 -5.617,6.353 -11.233,12.704 -16.852,19.058 -3.704,-1.479 -7.458,-2.847 -11.093,-4.488 -1.385,-2.424 -0.79,-5.658 0.827,-7.771 2.631,-2.35 6.225,-1.721 9.435,-1.654 1.574,0.267 0.57,-2.182 0.895,-3.23 0.029,-1.442 0.057,-2.88 0.086,-4.318 z" />
    <path
   id="path685"
   fill="#f032e6"
   class="clickable-region"
   data-label="Clairette du Languedoc"
   stroke="#316100"
   stroke-width="0.7475"
   d="m 910.252,688.219 c 0.005,2.039 0.316,4.16 0.137,6.148 -0.851,1.379 -1.616,2.836 -3.114,3.611 -2.271,1.854 -5.156,3.38 -6.274,6.215 -0.542,3.176 3.616,3.881 5.62,5.456 1.034,0.318 2.157,1.797 3.098,0.649 0.798,-0.843 1.941,-1.161 2.974,-0.524 1.749,0.578 2.979,2.386 4.957,2.168 4.521,0.396 9.041,0.789 13.562,1.185 -0.039,-5.229 -0.079,-10.458 -0.119,-15.688 -1.173,-0.181 -2.537,0.021 -3.598,-0.385 -1.863,-2.011 -3.184,-4.438 -4.905,-6.562 -2.706,-2.088 -6.013,-2.605 -9.341,-2.516 -1.002,0.082 -1.999,0.162 -2.997,0.243 z" />
    <path
   id="path687"
   fill="#bcf60c"
   class="clickable-region"
   data-label="Saint-Georges d'Orques"
   stroke="#316100"
   stroke-width="0.7475"
   d="m 1039.705,756.119 c 4.219,2.603 10.54,3.224 13.966,-1.002 1.427,-1.276 1.819,-3.021 1.668,-4.842 0.058,-2.204 0.115,-4.407 0.174,-6.611 6.067,-4.391 12.135,-8.78 18.202,-13.173 4.025,0.323 8.115,0.946 12.127,0.358 1.683,-0.313 5.782,-3.018 6.132,-1.078 0.301,5.189 0.603,10.38 0.902,15.569 -3.514,3.673 -7.025,7.345 -10.539,11.018 -2.234,-0.16 -4.471,-0.319 -6.706,-0.479 -4.71,5.029 -9.42,10.06 -14.131,15.089 -7.479,-3.021 -15.208,-6.587 -20.511,-12.874 -0.479,-0.623 -0.917,-1.28 -1.284,-1.975 z" />
    <path
   id="path689"
   fill="#fabebe"
   class="clickable-region"
   data-label="Coteaux de la Méjanelle"
   stroke="#316100"
   stroke-width="0.7475"
   d="m 1097.905,729.054 c 0.318,6.467 0.639,12.934 0.958,19.398 2.475,2.716 4.95,5.43 7.425,8.145 6.467,-3.992 12.934,-7.983 19.4,-11.977 5.349,0.958 10.696,1.916 16.047,2.874 3.433,3.354 6.865,6.707 10.299,10.061 1.35,-1.892 2.312,-4.112 3.926,-5.778 1.983,-1.666 3.696,-3.74 6.253,-4.551 2.626,-1.589 5.864,-1.815 8.523,-3.125 2.073,-2.294 4.245,-4.493 6.444,-6.664 3.194,0.398 6.389,0.798 9.581,1.197 2.794,-1.758 5.589,-3.514 8.384,-5.271 -5.828,-7.425 -11.656,-14.85 -17.484,-22.272 0.319,2.555 0.639,5.108 0.958,7.664 -8.063,8.303 -16.127,16.604 -24.19,24.907 -4.23,0.08 -8.463,0.16 -12.692,0.24 -1.146,-2.523 -2.115,-5.148 -3.914,-7.303 -0.867,-1.314 -1.702,-2.664 -3.22,-3.294 -3.127,-1.911 -6.063,-4.127 -9.394,-5.69 -1.597,1.277 -3.192,2.556 -4.79,3.832 -2.842,-1.528 -5.646,-3.261 -8.573,-4.551 -1.327,0.087 -2.774,-0.169 -4.029,0.121 -2.025,1.636 -4.052,3.271 -6.078,4.909 -1.279,-0.956 -2.556,-1.914 -3.834,-2.872 z" />
    <path
   id="path691"
   fill="#fabebe"
   class="clickable-region"
   data-label="Coteaux de la Méjanelle"
   stroke="#316100"
   stroke-width="0.7475"
   d="m 1127.364,724.743 c 0.719,-1.116 1.438,-2.234 2.156,-3.353 6.307,0.479 12.612,0.958 18.921,1.437 8.622,-3.112 17.243,-6.228 25.865,-9.341 0.24,1.597 0.479,3.193 0.72,4.79 -7.105,7.105 -14.211,14.211 -21.316,21.316 -2.794,0 -5.588,0 -8.382,0 -4.317,-6.588 -10.852,-11.592 -17.964,-14.849 z" />
    <path
   id="path693"
   fill="#008080"
   class="clickable-region"
   data-label="Pic-Saint-Loup"
   stroke="#316100"
   stroke-width="0.7475"
   d="m 1103.175,626.066 c -3.113,7.105 -6.228,14.211 -9.341,21.316 -1.996,-0.8 -3.992,-1.598 -5.988,-2.396 -0.878,1.996 -1.756,3.992 -2.634,5.988 -3.354,1.437 -6.707,2.874 -10.06,4.311 0.079,3.992 0.159,7.983 0.238,11.977 -1.756,1.117 -3.513,2.234 -5.27,3.354 2.513,0.392 5.128,0.529 7.578,1.073 1.612,1.321 3.478,2.467 4.935,3.899 0.485,1.757 1.266,3.51 1.567,5.271 -0.869,3.104 -1.592,6.259 -3.114,9.126 -0.542,1.207 -1.083,2.415 -1.625,3.623 1.837,0.398 3.673,0.799 5.509,1.197 0.08,6.228 0.16,12.455 0.24,18.682 2.693,0.911 5.405,1.783 7.817,3.328 3.452,1.707 6.254,4.436 9.659,6.234 1.335,1.419 1.462,-0.082 1.7,-1.313 0.474,-1.951 0.946,-3.903 1.42,-5.854 -2,-2.387 -4.148,-4.685 -6.059,-7.124 -0.832,-2.379 -2.037,-4.662 -2.63,-7.101 -0.228,-2.857 -0.853,-5.713 -0.826,-8.575 0.271,-1.663 0.05,-3.51 0.64,-5.055 1.34,-1.691 2.43,-3.642 3.923,-5.175 2.834,-1.89 5.673,-3.771 8.116,-6.162 1.585,-1.458 3.174,-2.913 5.201,-3.725 2.672,-1.54 5.553,-2.63 8.399,-3.789 -0.958,-2.076 -1.916,-4.151 -2.874,-6.229 1.45,-1.019 2.539,-2.271 2.436,-4.189 0.963,-5.481 1.35,-11.107 0.679,-16.646 3.193,0.958 6.388,1.916 9.581,2.874 2.794,-3.593 5.588,-7.185 8.383,-10.777 -4.151,-0.878 -8.304,-1.757 -12.455,-2.635 2.378,-5.656 4.926,-11.273 7.198,-16.957 0.297,-3.874 0.483,-7.754 0.542,-11.634 0.159,-2.372 0.578,-5.101 -1.091,-7.044 -0.937,-0.879 -2.233,-1.549 -3.431,-2.054 -3.313,-0.855 -6.767,-1.55 -10.149,-0.62 -5.046,1.229 -9.957,3.002 -14.948,4.453 -2.688,0.827 -5.372,1.652 -8.061,2.479 -0.468,2.909 -1.066,5.881 -1.117,8.797 0.625,1.373 1.257,2.744 1.837,4.138 -1.037,0.879 -2.075,1.757 -3.113,2.635 0.256,1.51 -0.235,3.299 1.044,4.426 1.092,1.411 1.971,3.058 3.713,3.745 0.993,0.477 1.632,1.405 2.431,2.128 z" />
    <path
   id="path695"
   fill="#9a6324"
   class="clickable-region"
   data-label="Saint-Drézéry"
   stroke="#316100"
   stroke-width="0.7475"
   d="m 1162.702,682.046 c -1.539,-3.355 -2.896,-6.849 -4.55,-10.116 -1.759,-1.483 -3.517,-2.966 -5.273,-4.449 -1.576,1.769 -3.342,3.425 -4.804,5.263 -0.672,2.22 -1.675,4.384 -2.141,6.638 0.084,1.656 -0.163,3.431 0.12,5.017 0.952,1.031 1.709,2.452 2.781,3.245 1.808,-0.127 3.82,0.674 5.402,-0.455 2.924,-1.531 5.945,-2.991 8.465,-5.143 z" />
    <path
   id="path697"
   fill="#fffac8"
   class="clickable-region"
   data-label="Coteaux de Vérargues"
   stroke="#316100"
   stroke-width="0.7475"
   d="m 1176.759,654.947 c 2.879,1.187 5.758,2.371 8.637,3.558 -0.281,-3.05 -0.563,-6.098 -0.847,-9.146 2.87,-0.289 5.797,-0.354 8.584,0.486 1.313,0.278 2.704,0.393 3.585,1.532 1.462,1.216 2.967,2.396 3.784,4.164 2.338,3.753 5.05,7.263 7.617,10.855 0.442,1.014 2.774,2.205 1.61,3.068 -5.684,4.887 -11.593,9.672 -16.205,15.627 -6.099,1.753 -12.25,3.882 -17.443,7.621 -4.516,-3.613 -9.032,-7.227 -13.549,-10.84 -1.354,-3.273 -2.709,-6.549 -4.064,-9.821 6.097,-5.701 12.194,-11.402 18.291,-17.104 z" />
    <path
   id="path699"
   fill="#800000"
   class="clickable-region"
   data-label="Saint-Christol"
   stroke="#316100"
   stroke-width="0.7475"
   d="m 1194.88,657.318 c -3.443,1.977 -6.887,3.951 -10.331,5.928 0.452,3.33 0.903,6.661 1.355,9.992 4.347,1.862 8.692,3.727 13.04,5.588 2.201,-1.919 4.402,-3.838 6.604,-5.758 -2.206,-5.958 -5.548,-11.828 -10.668,-15.75 z" />
    <path
   id="path701"
   fill="#aaffc3"
   class="clickable-region"
   data-label="Picpoul-de-Pinet"
   stroke="#316100"
   stroke-width="0.7475"
   d="m 953.482,801.864 c 4.711,2.795 9.421,5.589 14.131,8.383 14.211,0.16 28.422,0.319 42.633,0.479 4.071,-3.034 8.143,-6.068 12.215,-9.102 1.916,4.869 3.832,9.739 5.748,14.608 2.235,0.16 4.471,0.32 6.706,0.479 0.759,1.124 1.434,2.314 2.465,3.221 -1.398,0.979 -2.955,1.804 -3.695,3.429 -1.102,1.255 -1.284,2.941 -1.809,4.47 -4.348,1.551 -9.19,1.285 -13.388,3.232 -2.9,2.2 -4.021,5.708 -5.44,8.893 -1.79,1.484 -3.572,2.98 -5.762,3.84 -1.047,0.505 -2.336,0.832 -2.118,2.271 -0.376,1.671 -1.385,3.146 -2.013,4.74 -3.021,1.855 -7.21,2.632 -8.509,6.418 -0.183,1.744 -1.102,1.454 -2.239,0.563 -1.85,-1.041 -3.7,-2.081 -5.551,-3.122 -3.789,4.184 -7.323,8.605 -11.396,12.523 -0.711,2.459 -1.852,4.836 -1.746,7.45 -0.192,1.442 -0.012,3.079 -0.433,4.405 -5.344,4.407 -10.688,8.814 -16.031,13.223 -1.727,-2.869 -5.104,-4.07 -7.966,-5.516 -3.262,-0.418 -5.909,-2.65 -6.182,-6.008 0.991,-1.854 3.793,-1.84 5.403,-3.229 2.008,-1.598 -0.857,-5.028 -1.479,-7.011 -0.415,-3.154 1.029,-6.452 -0.451,-9.478 -1.366,-2.433 -0.715,-5.229 -0.863,-7.881 0.516,-1.693 -1.488,-0.898 -2.491,-1.097 -1.288,-0.017 -2.576,-0.032 -3.865,-0.049 0.609,-3.854 -2.03,-7.146 -3.455,-10.103 0.973,-3.027 4.739,-4.795 4.36,-8.332 0.353,-3.439 2.568,-6.421 5.979,-7.269 1.075,-1.484 2.104,-2.459 4.059,-2.561 1.013,-0.363 2.806,-0.096 2.304,-1.687 0.014,-1.198 0.44,-2.649 -1.151,-2.871 -1.774,-0.869 -3.55,-1.738 -5.324,-2.607 -0.061,-2.14 -0.375,-4.359 1.326,-5.939 1.273,-1.995 2.827,-3.753 4.541,-5.371 0.943,-0.892 1.034,-2.234 1.487,-3.394 z" />
    <path
   id="path703"
   fill="#316100"
   class="clickable-region"
   data-label="La Clape"
   stroke="#316100"
   stroke-width="0.7475"
   d="m 792.191,957.419 c -0.639,2.233 -1.276,4.468 -1.915,6.7 0.648,0.77 2.584,0.994 2.289,2.161 -0.23,1.248 -0.463,2.495 -0.693,3.743 -1.04,0.313 -2.692,-0.163 -3.323,0.679 -1.112,3.022 -2.226,6.044 -3.338,9.066 2.025,0.411 4.073,0.759 5.82,1.938 1.086,0.557 1.719,1.806 2.312,2.824 0.573,0.887 0.28,2.889 1.658,2.737 5.048,0.356 10.096,0.716 15.145,1.074 3.084,-5.529 6.168,-11.059 9.252,-16.586 1.955,1.166 3.91,2.332 5.866,3.498 0.075,1.918 0.15,3.836 0.227,5.754 6.552,0.692 13.104,1.387 19.656,2.079 -0.429,-0.146 1.49,-1.563 1.993,-2.215 6.734,-6.633 13.471,-13.267 20.204,-19.898 -3.067,-1.63 -5.884,-3.634 -8.569,-5.832 -4.153,-3.054 -8.438,-5.97 -12.777,-8.737 -1.804,-0.9 -3.607,-1.804 -5.411,-2.705 -2.597,0.79 -5.192,1.58 -7.79,2.371 -3.218,-2.259 -6.436,-4.517 -9.652,-6.773 -7.058,0.226 -14.113,0.45 -21.171,0.677 -1.292,0.986 -2.816,1.787 -3.966,2.888 -1.941,4.854 -3.878,9.704 -5.817,14.557 z" />
    <path
   id="path4724"
   fill="#dc143c"
   class="clickable-region"
   data-label="Quatourze"
   fill-opacity="1"
   stroke="#316100"
   stroke-width="0.7475"
   d="m 767.439,997.012 6.686,-10.027 6.685,5.015 0.717,9.787 z" />
</g>
<g
   id="layer12"
   inkscape:label="Couche zoom linÃƒÂ©aire"
   inkscape:groupmode="layer"
   transform="translate(17.58541,-51.3631)">
	<path
   id="path3060"
   fill="none"
   stroke="#000000"
   stroke-width="1.2636"
   stroke-dasharray="7.5819, 7.5819"
   d="m 738.274,698.91 c -1.422,3.934 -3.793,7.508 -4.155,11.779 -0.792,2.688 -1.063,5.469 -1.352,8.229 -0.693,1.785 -0.939,4.014 -3.252,4.379 -3.522,1.753 -8.205,-2.537 -10.708,1.78 -1.941,1.689 -3.861,5.302 -6.713,3.4 -2.325,-0.925 -4.888,-0.769 -7.329,-1.166 -0.851,1.276 -1.7,2.553 -2.553,3.829 -3.53,1.396 -7.821,0.581 -11.112,1.989 -1.085,1.446 -1.912,3.224 -3.15,4.473 -1.574,0.377 -3.106,1.479 -4.705,1.407 -1.655,-0.39 -3.312,-0.778 -4.965,-1.168 -2.812,1.437 -5.483,5.645 -8.447,5.328 -1.802,-0.892 -4.232,-0.913 -5.184,-2.979 -2.428,-3.314 -4.714,-6.855 -8.642,-8.563 -3.583,-2.552 -8.156,-3.397 -10.95,-6.937 -3.057,-2.44 -7.065,-0.476 -10.55,-0.408 -2.989,0.516 -5.479,-2.098 -8.43,-2.384 -5.456,-0.971 -3.168,7.466 -1.965,10.497 0.526,1.639 -0.719,3.203 -1.041,4.806 -2.896,3.962 -6.126,7.689 -9.894,10.851 1.861,3.443 3.973,6.84 5.425,10.447 0.023,1.622 0.224,3.289 -0.906,4.617 -0.88,2.332 -3.439,3.731 -3.306,6.475 0.107,3.073 4.162,3.87 4.846,6.853 1.469,2.504 1.994,5.693 4.063,7.728 1.451,0.646 3.915,0.147 4.118,2.216 0.484,2.837 2.281,6.021 5.497,6.016 2.808,-0.326 4.72,3.821 2.608,5.729 -1.286,2.078 -4.423,2.508 -4.597,5.29 -1.282,2.98 0.608,6.256 -0.76,9.233 -0.74,1.801 -0.093,3.732 -0.077,5.604 1.848,1.787 3.855,3.394 5.801,5.029 0.192,4.072 -5.033,2.404 -7.059,0.53 -5.073,-3.111 -5.386,5.291 -3.466,8.132 0.144,3.6 -5.819,2.809 -7.883,5.137 -3.758,2.155 -9.099,3.045 -9.313,8.396 -1.665,3.951 -7.012,1.756 -10.349,2.882 -2.403,0.989 -5.061,1.083 -7.623,1.168 m 6.071,-0.958 c 1.295,4.261 7.439,4.913 7.511,9.577 -2.201,2.55 -6.582,0.924 -9.078,2.961 -1.433,1.4 -3.752,2.15 -4.119,4.33 -1.737,4.077 -2.712,8.401 -3.088,12.811 -0.266,4.299 -3.513,7.817 -2.998,12.258 0.187,4.566 6.146,6.33 10.178,6.251 5.026,-2.46 8.844,1.649 9.567,6.439 1.092,4.427 3.534,8.358 4.556,12.802 1.755,2.896 5.294,7.957 8.272,7.602 1.43,-2.146 2.538,-4.479 3.771,-6.738 2.475,3.883 9.186,6.739 10.295,0.222 0.7,-2.325 8.196,-1.561 4.08,-5.219 -2.658,-4.044 3.05,-2.306 4.997,-3.682 1.606,-0.54 3.978,-2.862 3.964,0.422 1.439,4.708 3.014,9.422 2.91,14.41 -1.05,2.294 -2.911,5.791 1.3,5.595 2.568,0.433 4.952,1.47 5.62,-1.562 3.781,0.979 5.684,5.475 9.088,7.455 2.955,2.599 6.508,4.808 10.616,4.126 4.665,0.021 4.314,-6.164 5.891,-9.354 1.11,-3.854 1.747,-7.943 4.126,-11.271 3.361,-1.813 8.229,-3.651 6.917,-8.511 -0.566,-3.344 -1.088,-9.104 4.084,-8.092 5.3,0.64 10.866,1.564 15.97,-0.564 2.432,-3.049 4.875,-6.896 7.694,-9.955 -0.204,-2.612 -0.679,-5.799 -2.836,-7.589 -2.758,-1.563 -1.581,-4.795 -2.81,-7.277 -1.123,-3.136 -0.125,-10.396 4.147,-6.063 0.829,3.652 3.007,5.982 5.357,8.591 1.987,4.273 1.881,9.37 0.699,13.854 -1.524,2.301 -0.571,3.997 1.304,5.513 1.956,2.106 3.948,4.194 5.898,6.291 2.44,1.307 5.16,1 7.362,-0.521 2.876,-2.167 5.521,2.716 8.965,1.544 4.955,1.055 8.774,-3.162 13.52,-3.345 3.106,0.796 6.158,3.376 8.002,5.963 0.653,1.81 1.729,3.594 2.12,5.419 -0.829,2.902 -1.658,5.805 -2.487,8.708 0.957,1.808 1.914,3.616 2.871,5.425 0.16,0.564 3.483,-4.326 5.805,-4.02 3.677,-1.758 7.358,1.221 11.026,1.686 4.446,1.488 4.175,7.793 8.569,9.374 5.286,1.796 11.269,2.773 16.646,0.775 4.702,0.684 9.265,3.293 14.167,1.358 4.521,-0.313 6.198,6.644 11.549,4.587 4.381,-1.367 8.711,0.369 11.475,4.019 2.338,3.408 5.482,6.188 9.431,7.563 4.018,1.658 7.603,4.188 11.217,6.569 m 324.863,-194.665 c -0.88,-4.212 1.119,-8.301 3.563,-11.557 3.425,-2.973 8.468,-0.969 12.578,-1.996 3.759,-0.915 7.608,-0.939 11.376,-0.072 3.778,1.386 8.997,-1.461 5.599,-5.643 -4.729,-2.379 -1.033,-6.747 1.031,-9.772 3.932,-5.363 8.496,-10.48 10.49,-16.965 2.745,-3.088 2.067,-7.31 1.237,-10.998 -1.087,-3.664 -4.581,-5.777 -6.571,-8.806 -1.042,-1.833 -2.347,-3.577 -2.289,-5.784 -0.469,-3.57 -1.18,-7.123 -0.953,-10.74 -1.267,-3.736 -2.596,-7.685 -5.77,-10.253 -2.57,-2.376 -2.956,-9.965 -7.193,-8.828 -1.72,1.939 -3.686,2.483 -5.933,1.264 -2.411,-0.301 -3.272,-3.563 -5.806,-3.444 -2.828,-0.235 -6.197,-0.936 -7.29,-3.957 -2.21,-3.421 -4.563,-8.646 -9.494,-7.929 -2.143,0.522 -4.031,-1.202 -5.006,-2.893 -1.274,-5.093 -6.274,-7.463 -9.598,-11.035 -2.826,-1.477 -3.62,-5.396 -6.884,-5.934 -1.919,-0.588 -3.796,-1.654 -5.832,-0.939 -2.47,0.349 -5.001,0.485 -7.172,1.847 -2,1.337 -4.442,0.312 -6.676,0.404 -1.489,-0.851 -2.979,-1.7 -4.469,-2.553 0.197,-1.466 -0.402,-3.234 0.314,-4.502 1.209,-1.383 2.297,-2.928 4.178,-3.399 1.667,-0.255 2.052,-1.752 2.572,-3.116 1.086,-1.39 0.027,-2.856 -0.363,-4.3 1.668,-2.258 1.174,-4.148 -1.954,-4.757 -3.673,-0.271 -6.911,-1.255 -7.101,-5.396 -3.579,-1.57 -8.86,1.469 -12.245,-1.745 -1.264,-1.991 -2.413,-4.031 -2.788,-6.394 -0.676,-1.918 -0.602,-3.964 -0.803,-5.963 -1.479,-2.586 -3.479,-2.464 -4.762,0.016 -4.765,1.162 -9.886,0.148 -14.585,1.859 -3.438,0.739 -6.128,3.199 -9.357,4.499 -2.461,1.458 -5.482,-0.768 -7.991,-1.352 -3.51,-1.716 -7.229,-2.937 -10.854,-4.385 -2.278,-3.695 -0.051,-8.18 3.248,-10.365 2.356,-2.577 6.983,-4.025 6.879,-8.113 0.327,-3.21 0.115,-6.48 1.042,-9.604 -0.229,-5.963 -6.218,-4.42 -10.239,-4.542 -4.564,1.221 -6.578,-2.816 -4.954,-6.812 1.605,-2.85 -0.505,-3.648 -2.768,-4.358 -2.395,-1.93 -5.974,0.899 -7.89,-1.691 -1.566,-2.544 -3.567,-2.6 -5.146,-0.313 -0.889,1.563 -2.379,0.904 -3.778,0.575 -1.564,-0.82 -2.646,-0.002 -3.597,1.263 -1.158,1.175 -2.205,2.538 -3.969,2.699 -2.867,0.834 -5.878,-2.597 -8.582,0.569 -1.527,0.774 -3.017,1.554 -4.284,2.716 m 1.6,-11.804 c -0.068,3.648 0.14,7.332 -0.104,10.96 -0.938,4.938 -2.154,9.799 -3.726,14.569 -1.088,3.362 0.4,8.559 -3.11,10.448 -3.536,1.799 -7.528,-0.19 -11.25,-0.236 -2.021,0 -4.042,0 -6.063,0 -2.162,3.913 -5.929,6.488 -8.213,10.207 -2.165,4.654 -8.975,5.874 -9.74,11.343 -1.953,4.147 1.707,6.709 4.92,8.68 2.595,0.521 3.223,2.176 2.821,4.556 -1.404,0.226 -3.037,0.002 -4.302,0.5 -1.225,1.245 -2.23,3.038 -3.593,3.94 -1.438,-0.145 -3.11,0.049 -3.377,-1.774 -0.584,-1.926 -2.354,-2.942 -3.729,-4.263 -2.809,0.251 -5.638,0.917 -8.44,0.858 -1.976,-0.424 -3.934,-0.946 -5.951,-0.952 -0.67,-1.587 2.538,-3.9 0.251,-5.854 -0.891,-1.887 -2.289,-3.473 -3.409,-5.223 0.71,-1.456 2.068,-2.796 1.344,-4.51 -0.079,-1.604 -0.283,-3.086 -2.254,-2.822 -1.864,-0.11 -3.961,-1.391 -5.357,0.431 -3.425,0.395 -6.928,0.409 -10.326,1.157 -1.736,3.065 -3.457,6.14 -5.105,9.254 -3.428,3.277 -8.524,-1.852 -12.127,1.915 -1.193,0.85 -2.459,2.359 -3.342,0.364 -0.987,-1.065 -2.577,-2.173 -0.499,-3.029 1.664,-1.341 3.359,-2.652 4.194,-4.688 1.295,-1.229 0.632,-2.625 0.01,-4.019 -0.403,-1.198 -2.634,-2.225 -1.481,-3.485 1.394,-2.145 2.43,-4.465 3.354,-6.843 -3.128,-2.271 -7.081,-5.104 -11.01,-3.019 -3.047,1.318 -5.918,4.697 -9.42,2.171 -2.17,-1.409 -6.777,-3.801 -8.385,-0.807 -0.604,1.7 -1.592,2.33 -3.188,1.257 -1.348,-0.505 -2.789,-1.436 -3.634,0.292 -1.321,1.745 -4.037,2.052 -2.657,4.893 0.536,2.408 2.535,5.878 -1.319,4.587 -2.347,0.031 -4.62,-1.206 -6.867,-1.283 -1.313,0.708 -2.627,1.414 -3.94,2.121 -5.228,-2.484 -11.297,-1.072 -16.45,0.798 -1.823,1.56 -3.599,3.136 -4.767,5.271 -1.612,2.867 -5.652,3.354 -6.755,6.475 -0.574,1.486 -1.771,2.877 -1.966,4.421 0.473,4.941 5.35,7.824 6.642,12.396 -2.313,4.208 -7.036,6.34 -10.729,9.175 -3.526,1.812 -7.912,1.4 -11.791,2.236 -5.411,0.362 -10.813,-0.635 -16.212,0.063 -5.021,-0.099 -10.587,0.859 -14.858,-2.483 -4.126,-1.191 -6.884,-5.188 -11.188,-5.799 -4.487,-0.413 -9.175,3.136 -7.688,7.961 1.445,4.026 -0.566,8.675 -5.347,8.272 -3.527,-0.744 -4.762,2.146 -2.602,4.828 3.646,1.355 4.952,4.805 5.952,8.28 -0.202,5.083 8.2,3.69 6.404,8.69 -2.159,2.225 -3.854,5.099 -6.375,6.954 -3.014,1.062 -1.476,4.491 -1.834,6.935 0.008,2.788 -0.954,5.478 -0.458,8.271 1.127,2.342 -3.128,5.137 0.921,5.745 2.461,0.294 4.175,1.635 5.437,3.663 1.089,1.115 -1.063,2.417 -1.397,3.614 -1.141,1.666 -2.018,3.479 -2.905,5.287 -3.721,-2.161 -8.286,-2.145 -12.285,-0.837 -4.705,0.637 -5.489,-6.622 -10.733,-6.33 -4.051,-1.356 -8.303,-1.249 -12.403,-0.172 -1.872,2.029 -4.521,3.48 -5.584,6.103 -2.469,2.739 -9.33,4.418 -9.646,-1.048 -1.108,-3.104 -2.66,-6 -4.235,-8.885 1.23,-3.999 0.724,-8.844 -1.915,-12.126 -3.843,-1.83 -8.063,-2.076 -12.233,-1.823 -4.003,-0.679 -7.767,-2.54 -11.37,-4.35 -0.837,-0.524 -1.711,-0.988 -2.563,-1.486 M 904.216,579.88 c 0.555,-1.779 1.548,-3.546 1.844,-5.332 -0.99,-3.382 -2.155,-6.704 -3.438,-9.985 0.846,-4.816 5.125,-5.754 9.184,-6.639 4.038,-2.078 -0.598,-7.284 1.35,-10.059 3.536,-2.914 8.282,4.215 11.456,-0.571 1.942,-3.907 0.393,-9.233 4.639,-12.036 3.659,-2.816 8.425,-4.368 10.71,-8.671" />
	<path
   id="path3076"
   fill="none"
   stroke="#009ee0"
   stroke-width="1.2636"
   d="m 799.215,1062.719 c 0.345,-3.399 1.181,-6.647 2.708,-9.702 1.535,-5.57 4.628,-10.529 6.924,-15.802 3.112,-6.056 6.699,-11.863 10,-17.82 -1.674,-0.777 -3.257,-1.298 -3.866,0.919 -1.977,2.72 -4.239,5.396 -4.935,8.784 -1.099,1.633 -2.667,2.633 -4.501,3.274 -3.694,1.954 -3.557,7.02 -3.231,10.653 0.508,1.749 0.186,4.113 -1.807,4.685 -5.212,0.816 -2.756,6.419 -4.501,9.664 -1.063,1.621 -2.808,10.446 -4.012,4.668 0.105,-3.069 -3.105,-6.606 -0.481,-9.211 2.771,-2.599 -2.319,-5.514 -3.161,-8.172 -2.081,-2.561 -4.139,-5.294 -5.384,-8.342 0.039,-3.745 2.539,-6.689 4.739,-9.478 0.672,-2.541 -2.937,-6.167 1.543,-6.611 2.644,-0.226 0.387,6.422 1.39,8.642 -1.002,4.09 7.262,5.513 9.064,2.691 1.852,-2.318 2.406,-5.428 4.454,-7.563 2.108,-0.29 5.851,-0.532 4.151,-3.407 -1.817,-2.786 -5.379,-2.266 -8.192,-3.313 -2.638,0.071 -2.268,-3.629 0.276,-2.045 4.025,0.539 7.638,2.789 11.811,2.541 1.903,-0.226 3.99,-0.588 5.728,-1.401 2.855,-1.608 4.628,-4.378 6.873,-6.664 2.363,-3.746 3.893,-8.007 7.093,-11.192 11.08,-13.482 22.523,-26.933 36.156,-37.912 1.971,-0.782 3.68,-1.907 4.915,-3.656 3.502,-3.7 6.58,-7.856 10.855,-10.726 3.982,-2.896 8.239,-5.426 12.308,-8.203 1.393,-1.152 4.365,-1.899 3.949,-4.143 -0.604,-3.076 1.019,-5.626 4.513,-4.743 2.265,-2.604 -0.938,-4.555 -0.451,-7.56 0.512,-2.546 3.561,3.662 5.32,3.812 3.843,0.388 7.497,-1.95 9.572,-5.052 1.842,-0.263 3.482,1.063 5.218,0.704 4.819,-2.67 10.259,-4.46 15.837,-4.229 4.847,1.237 9.063,4.414 14.064,5.129 5.256,-2.363 9.118,2.313 14.271,2.513 3.449,0.892 4.749,-0.117 2.51,-2.989 0.664,-3.962 4.646,-3.371 5.414,0.073 1.161,-0.364 2.072,-2.411 3.143,-3.394 9.054,-11.152 18.359,-22.104 27.855,-32.875 6.905,-6.877 13.617,-13.973 20.644,-20.712 4.913,-4.491 12.359,-3.506 17.883,-6.899 4.536,-1.328 7.992,-4.73 12.164,-6.822 2.221,-2.122 3.733,-5.055 6.854,-5.979 5.771,-3.062 11.791,-5.718 16.941,-9.794 3.187,-2.227 6.455,-4.354 9.01,-7.328 2.343,-2.489 4.496,-5.132 7.095,-7.359 2.382,-4.908 7.189,-7.939 10.413,-12.246 3.063,-3.487 6.044,-7.024 9.937,-9.644 4.914,-4.26 9.779,-8.614 15.458,-11.856 5.798,-3.998 12.076,-7.176 18.39,-10.256 5.479,-1.112 10.269,-4.188 15.712,-5.458 5.511,-1.665 10.875,-4 16.681,-4.397 6.65,-2.604 13.896,-0.964 20.826,-1.246 4.752,0.055 8.847,2.368 12.897,4.559 3.194,1.692 5.757,4.265 7.446,7.445 -1.141,3.607 -3.647,6.414 -5.604,9.537 -1.854,2.619 -0.896,6.333 0.821,8.793 2.063,4.521 5.365,8.326 9.889,10.496 6.101,3.527 13.355,3.289 20.13,4.26 5.731,0.64 11.23,2.996 17.09,2.342 2.67,-0.248 -3.804,-4.132 -1.934,-6.926 0.548,-4.655 -0.327,-9.606 2.314,-13.75 1.684,-4.615 4.12,-0.546 3.778,2.397 0.519,4.922 4.465,7.17 8.573,3.836 3.62,-1.433 3.31,-5.694 2.736,-8.829 -0.433,-2.026 1.888,-1.553 2.905,-2.453 l 0.177,15.545 v 29.333 m -326.831,64.27 c -4.218,2.26 -9.204,2.74 -13.489,4.664 -2.112,1.766 -4.204,3.548 -5.498,6.026 -3.883,2.723 -9.993,-0.384 -13.299,4.37 -4.24,1.707 -8.278,5.293 -12.938,5.181 -3.52,-0.475 -5.97,-3.339 -8.928,-5.063 -2.32,-1.603 -4.641,-3.204 -6.961,-4.807 -5.146,-0.897 -10.443,-1.024 -15.337,-3.07 -5.102,-2.289 -10.745,-2.91 -15.806,-5.304 -5.786,-0.266 -4.526,-8.649 -9.987,-9.226 -5.05,0.041 -6.889,-4.442 -9.669,-7.65 -3.3,-2.517 -10.943,1.486 -10.95,-5.226 -0.024,-5.134 -3.114,-9.472 -5.584,-13.723 -3.548,-3.112 -9.172,-4.427 -10.69,-9.414 0.44,-1.562 0.086,-3.665 2.012,-4.209 0.896,-0.949 3.655,-1.425 2.97,-2.933 -2.61,-1.319 -7.812,-0.279 -9.448,-4.188 -1.084,-5.064 -8.277,-1.815 -10.801,-5.904 -1.877,-0.054 -3.809,0.104 -5.637,-0.067 -2.068,-2.321 -3.06,-7.434 -6.942,-6.869 -3.405,-0.556 -6.304,2.4 -9.797,0.8 -2.011,0.078 -3.746,-2.313 -3.247,-4.253 -0.629,-3.466 2.486,-5.609 5.812,-4.985 1.752,0.063 4.016,-0.931 3.854,-2.9 -0.881,-1.698 -1.65,-3.421 -1.197,-5.37 -0.168,-5.716 -9.333,1.793 -7.308,-4.595 3.477,-3.737 -2.028,-6.729 -5.24,-4.583 -3.188,1.234 -7.268,3.054 -9.946,-0.168 -2.903,-4.288 1.134,-8.979 3.133,-12.769 0.82,-5.021 -6.412,-6.189 -10.192,-5.776 -6.476,-0.16 7.128,-4.398 0.866,-7.34 -4.382,-1.53 6.146,-3.094 0.798,-5.903 -3.131,-2.976 2.484,-6.464 5.744,-5.585 3.697,-1.612 6.639,-5.924 11.017,-2.521 4.712,1.262 8.771,-2.642 13.533,-1.626 5,0.298 8.754,-3.52 13.405,-4.408 4.737,0.265 9.429,0.431 13.901,-1.575 5.189,-2.209 7.857,-7.576 11.325,-11.744 2.069,-2.761 4.345,-5.523 4.829,-9.063 0.305,-3.059 3.274,-5.277 2.488,-8.552 0.671,-2.764 -2.376,-3.629 -3.708,-5.47 -0.941,-1.307 -3.086,-2.354 -1.84,-4.133 0.36,-2.892 3.488,-3.956 4.803,-6.342 2.003,-2.189 3.199,-5.19 2.115,-8.124 -0.616,-3.954 -1.626,-7.88 -1.347,-11.914 2.322,-2.083 2.48,-5.154 0,-7.021 -2.506,0.642 -4.813,1.739 -7.18,2.714 -3.889,1.515 -5.128,-1.964 -2.832,-4.731 0.957,-3.998 -4.478,-1.854 -5.904,-0.106 -3.089,2.179 -9.249,0.787 -7.798,-4.098 -1.373,-3.904 -0.482,-7.888 1.377,-10.808 -1.417,-3.103 -5.611,-0.819 -7.986,-2.28 -1.598,-1.113 -0.948,-3.938 -2.304,-5.458 0.84,-4.831 2.79,-9.936 0.157,-14.682 1.551,-5.082 7.391,-4.455 11.593,-5.31 5.217,0.345 8.426,-5.054 13.548,-4.326 7.39,-0.309 14.799,-0.403 22.169,-1.017 4.771,-0.5 5.466,-5.944 9.414,-7.818 0.585,-0.531 1.17,-1.063 1.756,-1.595 m -1.595,267.581 c -4.596,0.731 -9.411,0.875 -13.723,2.712 -4.385,3.807 -9.889,6.245 -15.672,6.784 -3.765,0.257 -6.148,5.815 -10.156,7.303 -3.931,2.127 -8.043,4.109 -12.634,2.944 -3.957,-0.639 -11.11,-0.831 -10.55,-6.378 1.937,-2.57 3.814,-8.043 -0.835,-8.572 -2.216,-0.225 -4.479,-0.874 -6.537,0.317 -3.212,3.161 -7.817,-2.168 -9.815,2.001 -2.37,3.846 -3.813,-1.987 -6.79,-1.816 -0.482,1.269 -0.191,3.564 -1.146,4.667 -2.668,1.823 -5.549,-3.698 -7.479,0.07 -1.311,3.364 -5.275,2.877 -8.217,3.211 -2.382,1.008 -4.31,3.14 -7.101,2.553 -4.282,0.242 -9.432,-1.113 -13.044,1.449 -2.352,3.744 4.993,8.506 0.479,12.771 -2.22,2.24 -3.43,5.615 -6.624,6.686 -5.477,1.498 -4.075,7.925 -7.957,10.615 -3.471,3.842 -8.737,5.527 -13.103,2.026 -4.065,-1.649 -7.776,3.536 -12.163,1.55 -2.614,-0.942 -4.834,-0.125 -6.878,1.53 -4.7,2.871 -9.914,5.798 -15.644,4.698 -4.538,-0.118 -4.999,-5.93 -6.508,-9.234 -0.247,-5.24 -3.334,-9.147 -8.95,-8.477 -4.622,-1.182 -9.006,0.748 -13.463,1.636 -4.312,0.32 -8.454,2.596 -10.471,6.502 -2.451,4.54 -8.105,3.946 -12.204,5.804 -3.472,1.086 -4.143,5.74 -7.933,6.369 -3.885,0.104 -5.787,2.956 -5.394,6.654 1.75,4.856 0.385,10.422 -5.77,10.239 -4.717,0.734 -9.544,-0.146 -14.177,1.17 -4.716,1.268 -9.655,0.969 -14.353,2.345 -1.328,0.186 -2.662,0.313 -3.996,0.447 M 728.586,948.54 c -0.754,2.571 -2.194,5.389 -5.359,5.274 -4.148,1.78 -2.316,8.517 -8.053,8.688 -2.889,1.286 -6.182,3.518 -5.739,7.138 1.243,4.518 -3.004,4.437 -6.24,3.12 -1.689,-0.998 -2.006,2.799 -3.886,1.822 -1.622,0.188 -2.924,-2.573 -4.321,-1.421 -1.925,1.333 -3.952,3.229 -6.465,2.539 -3.756,-1.147 -5.758,2.571 -7.86,4.47 -2.204,0.493 -4.164,-0.238 -6.231,-0.94 m 531.671,-230.538 c 5.491,-1.459 11.272,-4.04 16.714,-0.918 4.872,1.885 9.35,-1.587 14.083,-2.231 5.446,-1.316 9.394,2.507 11.86,6.658 4.438,1.417 9.61,2.337 12.369,6.475 3.527,3.22 7.861,6.183 8.599,11.344 1.278,4.776 7.967,6.875 6.53,12.659 0.322,4.742 -2.525,8.967 -3.142,13.563 m -50.101,-23.615 c 3.446,-3.962 1.001,-9.354 4.114,-13.546 1.231,-5.66 -1.081,-11.796 1.745,-17.199 3.354,-6.104 7.77,-11.609 10.771,-17.938 1.856,-3.682 5.043,-7.133 4.596,-11.517 -1.069,-4.506 -2.351,-9.062 -5.283,-12.738 -2.021,-2.837 -5.053,-5.029 -5.054,-8.917 -1.479,-3.385 0.263,-7.241 -1.716,-10.492 -3.779,-6.485 -7.36,-13.122 -10.45,-19.982 -3.817,-1.689 -4.858,3.827 -8.269,3.324 -1.888,0.525 -3.226,0.033 -3.763,-1.938 -1.09,-1.771 -3.348,-2.539 -5.325,-2.934 -4.405,-0.675 0.322,-6 -0.813,-8.477 -0.944,-1.898 -2.478,-3.211 -4.312,-4.22 -3.27,-1.296 -3.137,-5.362 -3.427,-8.354 -0.432,-4.539 0.118,-9.276 -1.774,-13.539 -1.526,-4.265 -3.48,-8.369 -4.867,-12.688 1.287,-2.115 2.683,-4.19 2.765,-6.751 0.099,-1.474 -1.989,-2.262 -2.765,-3.461 1.389,-1.896 3.007,-3.678 3.263,-6.115 0.567,-1.366 -1.165,-3.38 -1.892,-3.947 -2.398,1.652 -5.652,3.033 -5.504,6.527 -0.657,1.414 -1.886,4.609 -3.851,3.428 -2.203,0.019 -1.688,-2.212 -2.02,-3.742 -0.878,-1.928 1.336,-2.706 2.413,-3.906 1.298,-1.013 2.979,-1.944 1.052,-3.346 -1.105,-3.878 -3.813,0.845 -5.997,-1.275 -2.196,-3.947 -3.611,0.037 -4.453,1.805 -6.038,0.152 -3.095,-8.115 -7.593,-10.583 -4.134,-2.263 -1.446,-10.316 -7.131,-10.431 -4.557,0.675 -5.388,-3.532 -5.867,-6.926 -4.827,-2.051 -8.838,-4.735 -10.108,-10.207 -0.9,-2.897 -1.748,-5.815 -2.683,-8.704 M 976.576,900.025 c -4.406,1.296 -9.709,4.746 -13.821,0.423 -3.708,-3.068 -4.251,-9.094 -8.854,-11.315 -3.491,-2.979 -10.216,-2.311 -10.748,-8.033 0.482,-2.465 4.349,-2.359 6.121,-4.09 -0.896,-4.304 -3.349,-8.072 -2.034,-12.65 0.424,-2.925 -0.619,-5.325 -3.208,-6.667 -1.828,-1.41 -4.999,-1.747 -4.688,-4.827 1.43,-4.614 -3.371,-8.267 -3.046,-11.932 3.725,-3.18 3.615,-7.938 5.666,-11.998 2.768,-2.103 7.944,-4.281 5.332,-8.705 -1.187,-2.646 -2.092,-6.329 -0.404,-8.859 1.615,-2.6 3.746,-4.758 5.767,-7.021 0.688,-4.067 -3.212,-9.642 2.891,-11.036 2.563,-0.887 3.365,-3.817 3.823,-6.152 -0.702,-3.117 -1.816,-6.762 0.759,-9.387 1.746,-2.599 4.156,-7.527 1.15,-9.888 -2.122,-1.83 -6.675,-2.476 -5.464,-6.187 2.231,-1.263 3.765,-3.02 4.049,-5.597 -1.205,-2.233 -1.8,-3.932 1.366,-1.85 2.32,2.906 7.218,1.423 5.344,-2.321 -0.381,-2.373 -2.37,-4.013 -3.538,-6.027 1.667,-2.022 2.994,-4.271 4.287,-6.544 -1.194,-3.226 -5.034,-8.463 1.025,-9.629 4.994,-0.764 4.404,-5.917 5.519,-9.326 3.957,-1.179 7.877,-2.85 6.093,-7.672 0.652,-1.321 0.91,-3.645 2.137,-4.21 3.683,2.237 10.223,3.63 10.235,-2.692 -1.781,-4.313 2.015,-7.88 2.521,-11.601 -3.694,-2.849 -6.488,-6.846 -7.151,-11.555 -0.089,-4.482 -0.355,-9.067 -0.173,-13.51 0.84,-2.197 2.183,-4.36 4.844,-4.496 4.229,-1.095 8.358,2.369 11.959,-1.13 3.22,-0.942 9.246,7.121 9.929,1.271 -2.259,-6.235 5.354,-5.845 6.995,-10.295 -0.187,-4.393 1.035,-8.575 5.951,-9.083 3.004,-3.099 7.313,-6.901 5.105,-11.677 -0.396,-1.731 -1.418,-3.518 -0.11,-5.102 1.134,-2.301 6.846,-0.748 5.284,-5.312 -1.167,-2.042 3.268,-2.847 2.799,-5.216 -1.373,-5.117 3.982,-5.938 7.28,-7.623 0.939,-1.594 2.079,-3.131 1.722,-5.084 0.059,-2.516 0.116,-5.029 0.175,-7.545 2.268,-3.491 5.268,-6.782 6.771,-10.604 0.44,-5.41 0.767,-10.83 1.129,-16.247 -1.927,-2.154 -3.663,-4.531 -6.336,-5.813 -2.998,-3.082 -5.669,-6.573 -8.332,-9.981 -1.817,-3.762 -3.015,-8.016 -1.522,-12.127 2.804,-3.962 1.451,-8.949 -0.563,-12.948 -2.596,-3.071 -7.865,-4.622 -11.943,-5.162 -5.352,-1.091 -10.195,1.482 -14.684,4.09 -2.71,1.84 -6.115,2.726 -8.058,5.532 -1.71,1.55 -2.088,3.986 -3.169,5.948 m -43.016,355.242 c -1.004,2.548 -2.683,4.659 -4.468,6.701 -0.327,3.844 0.021,8.218 -3.025,11.128 -1.558,2.208 -3.469,4.104 -5.271,6.104 m -56.803,22.499 c -1.114,-3.534 -0.661,-7.304 3.811,-7.477 3.486,-2.107 -1.065,-6.736 1.354,-10.003 -0.956,-4.981 -7.313,-2.244 -10.349,-5.146 -3.647,-1.448 -5.908,-4.801 -8.773,-7.323 -3.042,-3.115 -6.407,-5.99 -9.244,-9.26 -1.106,-1.921 -1.735,-4.035 -2.485,-6.106 m 2.196,63.803 c -7.221,-5.566 -14.44,-11.133 -21.662,-16.698 -5.169,0.913 -10.34,2.948 -15.619,1.459 -1.526,-0.656 -1.588,-3.156 -2.496,-4.591 -2.37,-3.875 -7.701,-0.38 -11.219,-0.479 -4.981,1.1 -10.378,-1.148 -15.092,0.817 -4.28,2.305 -9.269,5.658 -14.244,3.244 -6.201,1.178 -12.738,1.544 -18.94,0.735 -2.414,-2.154 -5.408,-3.988 -8.759,-3.774 -3.706,-0.707 -6.907,1.761 -10.209,3.039 -2.643,-0.886 -5.39,-1.318 -8.123,-1.806 -0.925,2.158 -1.165,4.607 -1.996,6.734 -2.801,2.985 -7.483,-1.477 -10.958,-1.461 -3.732,-0.921 -6.55,-3.787 -9.835,-5.653 -0.151,-0.1 -0.302,-0.197 -0.453,-0.298 m 83.134,128.039 c -2.698,-1.554 -8.749,-2.42 -10.305,-5.483 -3.511,-4.995 0.624,-11.984 -3.342,-16.884 -3.329,-3.151 -6.414,-7.028 -5.547,-11.958 0.552,-6.57 1.541,-13.116 0.984,-19.729 -0.393,-9.549 -0.366,-19.132 -1.097,-28.656 0.427,-4.952 -4.395,-7.604 -6.064,-11.479 0.57,-4.393 -0.914,-9.223 0.093,-13.345 2.202,-2.731 0.329,-6.533 -1.104,-9.214 -2.505,-5.45 -9.245,-6.124 -13.839,-9.106 -1.354,-0.765 -2.464,-1.876 -3.653,-2.859 m 10e-4,-0.225 c -3.379,-3.643 -6.547,-7.479 -9.132,-11.728 -2.236,-3.646 -5.222,-6.696 -8.809,-9.012 l -0.219,-0.16 -0.119,-0.087" />
	<path
   id="path3154"
   fill="#c9e6f5"
   stroke="#009ee0"
   stroke-width="1.2636"
   d="m 1228.74,772.871 c 3.948,6.732 7.897,13.465 11.847,20.195 2.671,1.971 4.563,4.723 7.001,6.917 2.962,1.89 5.173,4.957 8.583,6.06 4.193,2.052 3.884,-5.313 0.672,-6.31 -3.357,-2.778 -7.848,-4.151 -10.474,-7.821 -3.113,-3.957 -5.073,-8.637 -7.132,-13.192 -1.456,-3.006 -2.53,-7.152 -6.322,-7.879 -1.59,-0.157 -3.659,0.344 -4.175,2.03 z m -76.251,-13.01 c 1.604,-1.033 3.386,-1.892 4.881,-3.033 2.002,-3.146 3.461,-7.11 7.021,-8.784 3.267,-1.327 7.377,-0.871 9.82,-3.841 1.868,-1.663 3.571,-4.42 6.361,-4.127 2.012,0.837 3.792,2.489 6.03,1.515 2.277,-0.074 3.245,-2.682 5.18,-3.596 2.873,-2.436 6.543,-2.913 9.918,-1.052 1.981,0.748 4.254,1.151 5.434,3.081 1.613,1.114 0.061,1.269 -1.099,1.542 -2.105,0.567 -4.212,1.134 -6.316,1.701 2.341,1.701 4.681,3.403 7.021,5.104 -2.361,2.009 -4.639,4.145 -7.504,5.435 -2.74,1.841 -6.166,1.79 -9.182,2.931 -4.554,1.016 -9.29,1.283 -13.631,3.124 -2.127,0 -4.254,0 -6.382,0 -3.298,1.094 -6.255,2.985 -9.234,4.612 -2.827,0.962 -6.728,0.563 -8.603,-1.474 0.096,-1.045 0.192,-2.092 0.285,-3.138 z m -17.87,7.34 c 4.521,-0.377 9.011,-1.109 13.413,-2.191 2.4,-0.702 4.608,-0.914 5.494,1.992 0.772,3.228 -4.64,3.55 -6.781,4.986 -3.072,0.924 -5.979,2.23 -8.735,3.869 -2.995,1.166 -3.444,4.957 -5.505,7.22 -2.268,2.099 -5.859,1.808 -8.361,3.535 -1.154,1.299 -2.764,2.282 -3.246,4.044 -1.574,3.652 -5.697,4.774 -8.441,7.311 -2.797,2.364 -6.37,3.788 -8.79,6.571 -2.682,4.937 -6.792,8.956 -9.255,14.041 -2.617,1.862 -5.399,3.44 -8.352,4.684 -2.584,1.83 -3.716,4.942 -5.901,7.17 -0.675,1.425 -2.41,1.021 -3.689,1.401 -1.581,0.662 -0.525,-1.57 -0.698,-2.457 -0.198,-2.106 1.186,-3.783 2.188,-5.509 1.562,-3.071 5.979,-3.069 8.755,-2.099 2.953,-1.318 3.335,-5.283 4.848,-7.887 2.314,-4.929 2.621,-10.515 2.469,-15.869 0.275,-3.232 3.29,-5.543 6.189,-6.476 3.333,-2.002 6.585,1.063 9.783,1.886 1.285,0.563 2.109,-1.374 3.179,-1.982 1.687,-1.511 -1.311,-5.687 2.484,-6.097 1.911,-0.118 1.478,-2.016 1.772,-3.365 0.039,-2.104 1.121,-3.928 1.863,-5.843 2.33,-0.079 4.73,0.327 6.932,-0.645 1.709,-0.305 2.456,-2.145 3.692,-3.201 1.559,-1.699 3.129,-3.392 4.693,-5.089 z m -101.799,57.441 c 1.011,-1.447 1.764,-3.152 3.467,-3.907 1.314,-0.968 2.862,-2.358 3.647,0.104 0.895,2.799 -2.424,5.126 -2.646,7.874 -0.646,2.328 1.025,2.979 3.146,3.106 3.24,1.724 5.098,-4.189 8.1,-1.8 2.479,1.834 6.063,4.574 4.675,8.072 -1.062,2.882 -2.371,5.69 -5.347,7 -2.516,2.413 -6.786,0.711 -8.42,-1.821 -2.931,-2.735 -5.664,2.173 -5.813,4.775 -0.613,2.883 -0.799,5.896 -2.266,8.512 -0.879,1.021 -2.44,1.404 -3.59,2.173 -4.778,2.596 -9.351,5.555 -14.027,8.314 -2.896,1.142 -4.29,3.942 -6.146,6.212 -7.202,8.903 -14.622,17.629 -22.012,26.378 -2.688,0.822 -7.068,1.748 -8.968,0.08 -0.097,-1.622 -0.191,-3.244 -0.286,-4.866 2.394,-0.947 5.302,-1.023 6.991,-3.217 1.912,-2.936 -3.021,-5.743 -1.415,-9.11 0.513,-3.54 2.365,-6.756 4.315,-9.691 2.019,-2.364 2.938,-5.333 3.998,-8.178 1.593,-3.404 3.695,-6.547 5.774,-9.653 1.873,-2.224 5.063,-2.601 7.219,-4.357 0.809,-1.937 2.043,-3.742 2.155,-5.894 2.313,-1.18 4.759,-2.149 6.651,-3.982 1.646,-1.015 1.823,-3.152 2.728,-4.735 1.192,-2.657 3.211,-5.472 6.303,-5.911 3.582,-0.866 7.292,-1.12 10.806,-2.284 0.324,-1.067 0.642,-2.13 0.961,-3.194 z M 760.612,996.01 c 4.36,2.553 8.723,5.104 13.084,7.658 0.525,1.878 1.633,3.687 1.122,5.688 0.006,1.25 -0.207,2.428 -1.055,3.395 -1.339,1.128 0.027,1.632 1.033,2.218 1.122,0.7 2.244,1.401 3.366,2.104 0.38,3.391 0.184,6.882 -1.428,9.96 -1.396,2.744 -1.01,6.014 -1.029,9.003 0.864,3.334 1.739,6.817 4.334,9.255 2.075,2.321 3.271,5.392 3.578,8.457 0.097,2.985 0.191,5.974 0.289,8.959 -3.403,0.106 -6.809,0.214 -10.212,0.319 0.096,-1.506 -0.191,-3.192 0.145,-4.586 1.122,-0.918 2.244,-1.836 3.366,-2.754 -1.267,-1.247 -2.757,-2.354 -3.883,-3.689 -0.48,-0.989 -0.377,-2.521 -1.252,-3.146 -1.269,-0.487 -2.534,-0.975 -3.801,-1.462 -1.414,2.234 -4.726,4.355 -4.272,0.034 0.075,-2.396 -1.004,-3.575 -2.803,-4.842 -0.253,-1.926 3.254,-7.046 -0.856,-4.58 -2.916,0.678 -8.877,4.882 -9.71,-0.257 -1.728,-2.896 0.693,-5.754 3.007,-7.313 2.691,0.525 5.48,-0.604 7.528,-2.372 0.986,-0.896 1.972,-1.793 2.958,-2.688 -1.276,-1.171 -2.553,-2.341 -3.829,-3.511 2.517,-2.291 5.965,-5.025 5.222,-8.82 -1.145,-2.822 -1.64,-5.867 -3.188,-8.526 -0.799,-2.708 -1.99,-5.687 -1.714,-8.504 z m 473.093,-192.79 c -1.678,-0.512 -3.417,-0.917 -4.561,-2.389 -2.184,-2.583 -5.095,-4.825 -6.258,-8.075 -0.664,-2.576 -0.553,-6.519 3.209,-5.277 1.459,-0.019 1.451,-1.46 1.82,-2.536 2.693,-1.646 4.091,1.854 3.993,4.083 3.634,1.78 0.736,6.101 3.543,8.215 1.588,1.3 1.984,4.788 -0.34,5.534 -0.413,0.262 -0.948,0.277 -1.406,0.445 z M 896.238,724.759 c 1.313,-3.396 2.896,-6.689 4.25,-10.063 1.868,-3.173 6.549,-0.618 8.515,-3.818 3.063,-3.563 6.197,1.271 9.451,1.76 2.825,0.834 5.783,1.72 7.831,3.948 1.409,0.804 -1.155,1.186 -1.694,1.781 -1.565,1.003 -3.551,1.519 -4.492,3.248 -0.649,1.056 -1.361,1.949 -2.673,1.288 -1.328,-0.325 -2.86,-0.324 -4.064,-0.849 -0.814,-1.12 -1.629,-2.24 -2.443,-3.359 -3.64,0.257 -7.479,0.104 -10.729,2.031 -1.792,0.702 -2.644,2.707 -3.952,4.033 z m -46.911,230.402 c 1.702,0.106 3.404,0.214 5.105,0.319 -0.235,2.033 -0.885,4.083 -0.866,6.106 0.531,2.239 1.129,4.463 1.823,6.657 -1.409,0.013 -2.957,0.418 -4.285,0.193 -1.23,-1.128 -2.462,-2.256 -3.691,-3.385 1.489,-1.276 2.979,-2.553 4.468,-3.829 -0.852,-2.018 -1.702,-4.04 -2.554,-6.061 z" />
</g>
<g
   id="layer16"
   inkscape:label="Couche zoom ponct/text"
   inkscape:groupmode="layer"
   transform="translate(17.58541,-51.3631)">
	<rect
   id="rect5339"
   x="753.36499"
   y="969.65698"
   width="12.016"
   height="12.017" />
	<rect
   id="rect3202"
   x="854.48901"
   y="886.60602"
   width="12.016"
   height="12.016" />
	<rect
   id="rect3204"
   x="672.59198"
   y="804.91199"
   width="12.017"
   height="12.017" />
	<rect
   id="rect3206"
   x="889.59198"
   y="669.60602"
   width="12.017"
   height="12.016" />

	<text
   transform="translate(947.7979,646.5017)"
   font-family="Arial-ItalicMT"
   font-size="20px"
   id="text716"
   style="line-height:0%">H é r a u l t</text>
	<rect
   id="rect3208"
   x="1048.5129"
   y="840.01501"
   width="12.017"
   height="12.016" />
	<text
   transform="translate(951.7383,959.0535)"
   fill="#0978ab"
   font-family="ArialMT"
   font-size="27.9082px"
   id="text719"
   style="line-height:0%">Mer Méditerranée</text>
	<path
   id="path4730"
   fill="none"
   stroke="#000000"
   stroke-width="0.7475"
   d="m 776.47,994.201 12.779,5.779" />
	<path
   id="path4732"
   fill="none"
   stroke="#000000"
   stroke-width="0.7475"
   d="M 969.546,729.424 962.6,717.134" />
	<g
   id="layer20"
   inkscape:label="RiviÃƒÂ¨res/Fleuves#1"
   inkscape:groupmode="layer">
		<text
   transform="matrix(0.7225,0.6914,-0.6914,0.7225,843.5234,937.1589)"
   font-family="ArialMT"
   font-size="10px"
   id="text759"
   style="line-height:0%">Aude</text>
		<text
   transform="matrix(0.3932,0.9195,-0.9195,0.3932,832.291,857.4753)"
   font-family="ArialMT"
   font-size="10.0004px"
   id="text761"
   style="line-height:0%">Orb</text>
		<text
   transform="matrix(0.3408,-0.9401,0.9401,0.3408,1038.8779,618.1902)"
   font-family="ArialMT"
   font-size="9.9997px"
   id="text763"
   style="line-height:0%">Hérault</text>
		<text
   transform="matrix(0.4523,0.8919,-0.8919,0.4523,1224.0371,661.4919)"
   font-family="ArialMT"
   font-size="10px"
   id="text765"
   style="line-height:0%">Vidourle</text>
	</g>
	<g
   id="layer22"
   inkscape:label="Villes#1"
   inkscape:groupmode="layer">
		<text
   transform="translate(992.249,726.2644)"
   font-family="Arial-BoldMT"
   font-size="16px"
   id="text768"
   style="line-height:0%">Montpellier</text>
		<text
   transform="translate(685.6201,801.9841)"
   font-family="ArialMT"
   font-size="14.9508px"
   id="text770"
   style="line-height:0%">Saint-Pons</text>
		<text
   transform="translate(1060.9023,863.2556)"
   font-family="ArialMT"
   font-size="14.9508px"
   id="text772"
   style="line-height:0%">Sète</text>
		<text
   transform="translate(831.1992,672.2546)"
   font-family="ArialMT"
   font-size="14.9508px"
   id="text774"
   style="line-height:0%">Lodève</text>
		<text
   transform="translate(868.1553,884.9548)"
   font-family="ArialMT"
   font-size="14.9508px"
   id="text776"
   style="line-height:0%">Béziers</text>
		<text
   transform="translate(675.6299,991.0828)"
   font-family="ArialMT"
   font-size="14.9508px"
   id="text778"
   style="line-height:0%">Narbonne</text>
	</g>
</g>
</svg>
