<svg xmlns="http://www.w3.org/2000/svg" xmlns:xlink="http://www.w3.org/1999/xlink" version="1.1" viewBox="230.38 0.44 175.91 42.69">
<g id="surface1">
<path style=" stroke:none;fill-rule:nonzero;fill:rgb(96.470588%,53.725493%,62.7451%);fill-opacity:1;" d="M 267.519531 8.09375 L 272.183594 8.09375 L 275.210938 30.949219 L 275.296875 30.949219 L 278.320312 8.09375 L 282.566406 8.09375 L 278.109375 37.554688 L 271.972656 37.554688 Z M 267.519531 8.09375 "/>
<path style=" stroke:none;fill-rule:nonzero;fill:rgb(96.470588%,53.725493%,62.7451%);fill-opacity:1;" d="M 284.796875 8.09375 L 289.421875 8.09375 L 289.421875 37.554688 L 284.796875 37.554688 Z M 284.796875 8.09375 "/>
<path style=" stroke:none;fill-rule:nonzero;fill:rgb(96.470588%,53.725493%,62.7451%);fill-opacity:1;" d="M 292.867188 8.09375 L 298.671875 8.09375 L 303.167969 25.730469 L 303.253906 25.730469 L 303.253906 8.09375 L 307.371094 8.09375 L 307.371094 37.554688 L 302.621094 37.554688 L 297.070312 16.050781 L 296.988281 16.050781 L 296.988281 37.554688 L 292.867188 37.554688 Z M 292.867188 8.09375 "/>
<path style=" stroke:none;fill-rule:nonzero;fill:rgb(96.470588%,53.725493%,62.7451%);fill-opacity:1;" d="M 317.503906 37.976562 C 315.234375 37.976562 313.496094 37.332031 312.292969 36.042969 C 311.085938 34.75 310.484375 32.925781 310.484375 30.570312 L 310.484375 15.085938 C 310.484375 12.726562 311.085938 10.902344 312.292969 9.613281 C 313.496094 8.320312 315.234375 7.675781 317.503906 7.675781 C 319.773438 7.675781 321.511719 8.320312 322.71875 9.613281 C 323.921875 10.902344 324.527344 12.726562 324.527344 15.085938 L 324.527344 30.570312 C 324.527344 32.925781 323.921875 34.75 322.71875 36.042969 C 321.511719 37.332031 319.773438 37.976562 317.503906 37.976562 M 317.503906 33.769531 C 319.101562 33.769531 319.902344 32.800781 319.902344 30.867188 L 319.902344 14.789062 C 319.902344 12.851562 319.101562 11.882812 317.503906 11.882812 C 315.90625 11.882812 315.109375 12.851562 315.109375 14.789062 L 315.109375 30.867188 C 315.109375 32.800781 315.90625 33.769531 317.503906 33.769531 "/>
<path style=" stroke:none;fill-rule:nonzero;fill:rgb(96.470588%,53.725493%,62.7451%);fill-opacity:1;" d="M 334.152344 37.976562 C 331.941406 37.976562 330.25 37.347656 329.085938 36.082031 C 327.921875 34.820312 327.339844 33.039062 327.339844 30.738281 L 327.339844 14.914062 C 327.339844 12.613281 327.921875 10.832031 329.085938 9.570312 C 330.25 8.304688 331.941406 7.675781 334.152344 7.675781 C 336.367188 7.675781 338.054688 8.304688 339.21875 9.570312 C 340.382812 10.832031 340.964844 12.613281 340.964844 14.914062 L 340.964844 18.03125 L 336.589844 18.03125 L 336.589844 14.617188 C 336.589844 12.796875 335.820312 11.882812 334.277344 11.882812 C 332.738281 11.882812 331.964844 12.796875 331.964844 14.617188 L 331.964844 31.078125 C 331.964844 32.871094 332.738281 33.769531 334.277344 33.769531 C 335.820312 33.769531 336.589844 32.871094 336.589844 31.078125 L 336.589844 26.570312 L 340.964844 26.570312 L 340.964844 30.738281 C 340.964844 33.039062 340.382812 34.820312 339.21875 36.082031 C 338.054688 37.347656 336.367188 37.976562 334.152344 37.976562 "/>
<path style=" stroke:none;fill-rule:nonzero;fill:rgb(96.470588%,53.725493%,62.7451%);fill-opacity:1;" d="M 347.3125 8.09375 L 353.578125 8.09375 L 358.371094 37.554688 L 353.746094 37.554688 L 352.90625 31.707031 L 352.90625 31.792969 L 347.648438 31.792969 L 346.808594 37.554688 L 342.519531 37.554688 Z M 352.355469 27.792969 L 350.296875 13.230469 L 350.214844 13.230469 L 348.195312 27.792969 Z M 352.355469 27.792969 "/>
<path style=" stroke:none;fill-rule:nonzero;fill:rgb(96.470588%,53.725493%,62.7451%);fill-opacity:1;" d="M 360.597656 8.09375 L 367.449219 8.09375 C 369.832031 8.09375 371.570312 8.648438 372.664062 9.757812 C 373.757812 10.867188 374.304688 12.570312 374.304688 14.875 L 374.304688 16.683594 C 374.304688 19.742188 373.292969 21.675781 371.277344 22.492188 L 371.277344 22.574219 C 372.398438 22.910156 373.1875 23.597656 373.652344 24.636719 C 374.113281 25.675781 374.347656 27.0625 374.347656 28.804688 L 374.347656 33.980469 C 374.347656 34.820312 374.375 35.5 374.429688 36.023438 C 374.484375 36.542969 374.625 37.050781 374.847656 37.554688 L 370.140625 37.554688 C 369.972656 37.082031 369.859375 36.632812 369.804688 36.210938 C 369.75 35.789062 369.722656 35.03125 369.722656 33.9375 L 369.722656 28.550781 C 369.722656 27.203125 369.503906 26.265625 369.066406 25.730469 C 368.636719 25.195312 367.886719 24.929688 366.820312 24.929688 L 365.222656 24.929688 L 365.222656 37.554688 L 360.597656 37.554688 Z M 366.902344 20.722656 C 367.828125 20.722656 368.523438 20.484375 368.984375 20.007812 C 369.449219 19.53125 369.679688 18.730469 369.679688 17.609375 L 369.679688 15.335938 C 369.679688 14.269531 369.488281 13.496094 369.109375 13.019531 C 368.730469 12.542969 368.136719 12.304688 367.324219 12.304688 L 365.222656 12.304688 L 365.222656 20.722656 Z M 366.902344 20.722656 "/>
<path style=" stroke:none;fill-rule:nonzero;fill:rgb(96.470588%,53.725493%,62.7451%);fill-opacity:1;" d="M 381.074219 12.304688 L 376.238281 12.304688 L 376.238281 8.09375 L 390.53125 8.09375 L 390.53125 12.304688 L 385.695312 12.304688 L 385.695312 37.554688 L 381.074219 37.554688 Z M 381.074219 12.304688 "/>
<path style=" stroke:none;fill-rule:nonzero;fill:rgb(96.470588%,53.725493%,62.7451%);fill-opacity:1;" d="M 399.273438 37.976562 C 397.003906 37.976562 395.269531 37.332031 394.0625 36.042969 C 392.859375 34.75 392.253906 32.925781 392.253906 30.570312 L 392.253906 15.085938 C 392.253906 12.726562 392.859375 10.902344 394.0625 9.613281 C 395.269531 8.320312 397.003906 7.675781 399.273438 7.675781 C 401.546875 7.675781 403.285156 8.320312 404.488281 9.613281 C 405.695312 10.902344 406.296875 12.726562 406.296875 15.085938 L 406.296875 30.570312 C 406.296875 32.925781 405.695312 34.75 404.488281 36.042969 C 403.285156 37.332031 401.546875 37.976562 399.273438 37.976562 M 399.273438 33.769531 C 400.875 33.769531 401.671875 32.800781 401.671875 30.867188 L 401.671875 14.789062 C 401.671875 12.851562 400.875 11.882812 399.273438 11.882812 C 397.679688 11.882812 396.878906 12.851562 396.878906 14.789062 L 396.878906 30.867188 C 396.878906 32.800781 397.679688 33.769531 399.273438 33.769531 "/>
<path style=" stroke:none;fill-rule:nonzero;fill:rgb(96.470588%,53.725493%,62.7451%);fill-opacity:1;" d="M 233.796875 0.441406 L 238.484375 0.441406 L 238.484375 3.429688 L 233.796875 3.429688 Z M 241.898438 40.996094 C 241.898438 41.847656 241.042969 43.128906 239.765625 43.128906 L 232.515625 43.128906 C 231.238281 43.128906 230.382812 41.847656 230.382812 40.996094 L 230.382812 16.664062 C 230.382812 13.675781 233.796875 13.25 233.796875 11.96875 L 233.796875 5.140625 L 238.484375 5.140625 L 238.484375 11.96875 C 238.484375 13.25 241.898438 13.675781 241.898438 16.664062 Z M 241.898438 40.996094 "/>
</g>
</svg>