<svg xmlns="http://www.w3.org/2000/svg" version="1.1" xmlns:xlink="http://www.w3.org/1999/xlink" width="200" height="200"><svg xmlns="http://www.w3.org/2000/svg" version="1.1" xmlns:xlink="http://www.w3.org/1999/xlink" viewBox="0 0 200 200"><rect width="200" height="200" fill="url('#gradient')"></rect><defs><linearGradient id="SvgjsLinearGradient1001" gradientTransform="rotate(45 0.5 0.5)"><stop offset="0%" stop-color="#c99091"></stop><stop offset="100%" stop-color="#6d7563"></stop></linearGradient></defs><g><g fill="#c4345e" transform="matrix(2.054849498327759,0,0,2.054849498327759,10.05970701423778,115.09650316238404)" stroke="#ce646a" stroke-width="0.85"><path d="M3.77-14.22L6.59-3.87L9.42-14.22L13.25-14.22L8.47 0L4.72 0L-0.03-14.22L3.77-14.22ZM17.61-10.57L17.61 0L14.31 0L14.31-10.57L17.61-10.57ZM14.11-13.29L14.11-13.29Q14.11-13.99 14.62-14.44Q15.13-14.89 15.94-14.89Q16.75-14.89 17.26-14.44Q17.76-13.99 17.76-13.29Q17.76-12.59 17.26-12.14Q16.75-11.69 15.94-11.69Q15.13-11.69 14.62-12.14Q14.11-12.59 14.11-13.29ZM19.57-10.57L22.66-10.57L22.76-9.33Q23.86-10.76 25.78-10.76L25.78-10.76Q27.43-10.76 28.25-9.78Q29.06-8.79 29.09-6.81L29.09-6.81L29.09 0L25.79 0L25.79-6.67Q25.79-7.47 25.47-7.85Q25.15-8.22 24.30-8.22L24.30-8.22Q23.33-8.22 22.86-7.46L22.86-7.46L22.86 0L19.57 0L19.57-10.57ZM30.51-4.82L30.50-5.38Q30.50-6.96 31.11-8.20Q31.73-9.43 32.88-10.10Q34.03-10.76 35.59-10.76L35.59-10.76Q37.96-10.76 39.33-9.29Q40.69-7.82 40.69-5.29L40.69-5.29L40.69-5.18Q40.69-2.71 39.32-1.25Q37.95 0.20 35.61 0.20L35.61 0.20Q33.35 0.20 31.98-1.16Q30.62-2.51 30.51-4.82L30.51-4.82ZM33.80-5.77L33.79-5.18Q33.79-3.71 34.25-3.03Q34.71-2.34 35.61-2.34L35.61-2.34Q37.36-2.34 37.40-5.05L37.40-5.05L37.40-5.38Q37.40-8.22 35.59-8.22L35.59-8.22Q33.94-8.22 33.80-5.77L33.80-5.77ZM46.61-2.34L46.61-2.34Q47.30-2.34 47.69-2.72Q48.07-3.10 48.06-3.77L48.06-3.77L51.14-3.77Q51.14-2.03 49.90-0.92Q48.65 0.20 46.69 0.20L46.69 0.20Q44.38 0.20 43.06-1.25Q41.73-2.70 41.73-5.25L41.73-5.25L41.73-5.39Q41.73-6.99 42.32-8.22Q42.91-9.44 44.02-10.10Q45.14-10.76 46.66-10.76L46.66-10.76Q48.72-10.76 49.93-9.62Q51.14-8.48 51.14-6.52L51.14-6.52L48.06-6.52Q48.06-7.34 47.66-7.78Q47.26-8.22 46.58-8.22L46.58-8.22Q45.30-8.22 45.09-6.59L45.09-6.59Q45.02-6.07 45.02-5.17L45.02-5.17Q45.02-3.57 45.40-2.96Q45.78-2.34 46.61-2.34ZM61.78 0L58.49 0Q58.31-0.32 58.17-0.95L58.17-0.95Q57.27 0.20 55.63 0.20L55.63 0.20Q54.14 0.20 53.10-0.71Q52.05-1.61 52.05-2.98L52.05-2.98Q52.05-4.70 53.32-5.58Q54.59-6.46 57.01-6.46L57.01-6.46L58.03-6.46L58.03-7.01Q58.03-8.47 56.77-8.47L56.77-8.47Q55.60-8.47 55.60-7.31L55.60-7.31L52.30-7.31Q52.30-8.85 53.61-9.80Q54.91-10.76 56.93-10.76Q58.96-10.76 60.13-9.78Q61.30-8.79 61.33-7.07L61.33-7.07L61.33-2.39Q61.35-0.94 61.78-0.17L61.78-0.17L61.78 0ZM56.43-2.15L56.43-2.15Q57.04-2.15 57.45-2.41Q57.85-2.68 58.03-3.01L58.03-3.01L58.03-4.70L57.07-4.70Q55.35-4.70 55.35-3.15L55.35-3.15Q55.35-2.71 55.65-2.43Q55.96-2.15 56.43-2.15ZM69.60-10.64L69.54-7.59L68.46-7.67Q66.90-7.67 66.46-6.69L66.46-6.69L66.46 0L63.17 0L63.17-10.57L66.26-10.57L66.37-9.21Q67.20-10.76 68.68-10.76L68.68-10.76Q69.21-10.76 69.60-10.64L69.60-10.64ZM71.76-13.19L75.05-13.19L75.05-10.57L76.79-10.57L76.79-8.28L75.05-8.28L75.05-3.45Q75.05-2.85 75.26-2.62Q75.48-2.38 76.11-2.38L76.11-2.38Q76.60-2.38 76.93-2.44L76.93-2.44L76.93-0.09Q76.04 0.20 75.08 0.20L75.08 0.20Q73.38 0.20 72.57-0.61Q71.76-1.41 71.76-3.04L71.76-3.04L71.76-8.28L70.41-8.28L70.41-10.57L71.76-10.57L71.76-13.19ZM77.38-4.82L77.37-5.38Q77.37-6.96 77.99-8.20Q78.60-9.43 79.76-10.10Q80.91-10.76 82.46-10.76L82.46-10.76Q84.83-10.76 86.20-9.29Q87.57-7.82 87.57-5.29L87.57-5.29L87.57-5.18Q87.57-2.71 86.20-1.25Q84.82 0.20 82.48 0.20L82.48 0.20Q80.22 0.20 78.86-1.16Q77.49-2.51 77.38-4.82L77.38-4.82ZM80.67-5.77L80.66-5.18Q80.66-3.71 81.12-3.03Q81.58-2.34 82.48-2.34L82.48-2.34Q84.24-2.34 84.28-5.05L84.28-5.05L84.28-5.38Q84.28-8.22 82.46-8.22L82.46-8.22Q80.81-8.22 80.67-5.77L80.67-5.77Z"></path></g></g></svg><style>@media (prefers-color-scheme: light) { :root { filter: none; } }
@media (prefers-color-scheme: dark) { :root { filter: none; } }
</style></svg>